<svg xmlns="http://www.w3.org/2000/svg"
                     viewBox="0 0 28 28" fill="none">
	<path d="M21.0313 12.875C21.4584 12.875 21.8114 13.1925 21.8674 13.6042L21.875 13.7188V14.2813C21.875 18.2856 18.7756 21.5661 14.8449 21.8544L14.8438 24.4063C14.8438 24.8722 14.466 25.25 14 25.25C13.5728 25.25 13.2198 24.9325 13.1639 24.5208L13.1563 24.4063V21.8545C9.31238 21.5731 6.26318 18.4303 6.12957 14.5471L6.125 14.2813V13.7188C6.125 13.2528 6.50276 12.875 6.96875 12.875C7.39591 12.875 7.74893 13.1925 7.80479 13.6042L7.8125 13.7188V14.2813C7.8125 17.4616 10.3263 20.0549 13.4753 20.1826L13.7188 20.1875H14.2813C17.4616 20.1875 20.0549 17.6738 20.1826 14.5247L20.1875 14.2813V13.7188C20.1875 13.2528 20.5653 12.875 21.0313 12.875ZM14 2.75C16.4852 2.75 18.5 4.76472 18.5 7.25V14C18.5 16.4852 16.4852 18.5 14 18.5C11.5147 18.5 9.5 16.4852 9.5 14V7.25C9.5 4.76472 11.5147 2.75 14 2.75Z"
		  fill="#FA5F5F" />
</svg>